2016-10-28 08:55:15
running
2016-10-28 08:55:41
{'/Volumes/G-SPEED Q/Titan-HD/HM/IncomingQT/A2016_007_002_006': ['019620011.MOV', '019620021.MOV', '019620031.MOV', '019620041.MOV', 'concat.mov']}
ffmpeg version 3.1.1 Copyright (c) 2000-2016 the FFmpeg developers
  built with Apple LLVM version 7.3.0 (clang-703.0.31)
  configuration: --prefix=/usr/local/Cellar/ffmpeg/3.1.1 --enable-shared --enable-pthreads --enable-gpl --enable-version3 --enable-hardcoded-tables --enable-avresample --cc=clang --host-cflags= --host-ldflags= --enable-opencl --enable-libx264 --enable-libmp3lame --enable-libxvid --enable-libfreetype --enable-libvorbis --enable-libvpx --enable-libass --enable-ffplay --enable-libfdk-aac --enable-libopus --enable-libx265 --disable-lzma --enable-nonfree --enable-vda
  libavutil      55. 28.100 / 55. 28.100
  libavcodec     57. 48.101 / 57. 48.101
  libavformat    57. 41.100 / 57. 41.100
  libavdevice    57.  0.101 / 57.  0.101
  libavfilter     6. 47.100 /  6. 47.100
  libavresample   3.  0.  0 /  3.  0.  0
  libswscale      4.  1.100 /  4.  1.100
  libswresample   2.  1.100 /  2.  1.100
  libpostproc    54.  0.100 / 54.  0.100
[concat @ 0x7fb4f1000000] Could not find codec parameters for stream 3 (Unknown: none): unknown codec
Consider increasing the value for the 'analyzeduration' and 'probesize' options
Guessed Channel Layout for Input Stream #0.1 : mono
Guessed Channel Layout for Input Stream #0.2 : mono
Input #0, concat, from 'concat.txt':
  Duration: N/A, start: 0.000000, bitrate: 52307 kb/s
    Stream #0:0(eng): Video: mpeg2video (4:2:2) (xd5b / 0x62356478), yuv422p(tv), 1920x1080 [SAR 1:1 DAR 16:9], 50003 kb/s, 29.97 fps, 29.97 tbr, 11988 tbn, 11988 tbc
    Metadata:
      handler_name    : DataHandler
      encoder         : 1080i5994 50 Mbit 4:2:2 LG
      timecode        : 06:00:00:00
    Stream #0:1(eng): Audio: pcm_s24be (in24 / 0x34326E69), 48000 Hz, 1 channels, s32 (24 bit), 1152 kb/s
    Metadata:
      handler_name    : DataHandler
    Stream #0:2(eng): Audio: pcm_s24be (in24 / 0x34326E69), 48000 Hz, 1 channels, s32 (24 bit), 1152 kb/s
    Metadata:
      handler_name    : DataHandler
    Stream #0:3: Unknown: none
File 'concat.mov' already exists. Overwrite ? [y/N] 